<?xml version="1.0" encoding="UTF-8" standalone="no"?>
<svg
   xmlns:dc="http://purl.org/dc/elements/1.1/"
   xmlns:cc="http://creativecommons.org/ns#"
   xmlns:rdf="http://www.w3.org/1999/02/22-rdf-syntax-ns#"
   xmlns:svg="http://www.w3.org/2000/svg"
   xmlns="http://www.w3.org/2000/svg"
   xmlns:sodipodi="http://sodipodi.sourceforge.net/DTD/sodipodi-0.dtd"
   xmlns:inkscape="http://www.inkscape.org/namespaces/inkscape"
   version="1.0"
   width="1849.000000pt"
   height="233.000000pt"
   viewBox="0 0 1849.000000 233.000000"
   preserveAspectRatio="xMidYMid meet"
   id="svg94"
   sodipodi:docname="icone.svg"
   inkscape:version="1.0.1 (3bc2e81, 2020-09-07)">
  <metadata
     id="metadata100">
    <rdf:RDF>
      <cc:Work
         rdf:about="">
        <dc:format>image/svg+xml</dc:format>
        <dc:type
           rdf:resource="http://purl.org/dc/dcmitype/StillImage" />
      </cc:Work>
    </rdf:RDF>
  </metadata>
  <defs
     id="defs98" />
  <sodipodi:namedview
     pagecolor="#ffffff"
     bordercolor="#666666"
     borderopacity="1"
     objecttolerance="10"
     gridtolerance="10"
     guidetolerance="10"
     inkscape:pageopacity="0"
     inkscape:pageshadow="2"
     inkscape:window-width="1366"
     inkscape:window-height="744"
     id="namedview96"
     showgrid="false"
     inkscape:zoom="0.30861827"
     inkscape:cx="1466.9196"
     inkscape:cy="282.59214"
     inkscape:window-x="0"
     inkscape:window-y="0"
     inkscape:window-maximized="1"
     inkscape:current-layer="g92" />
  <g
     transform="translate(0.000000,233.000000) scale(0.100000,-0.100000)"
     fill="#000000"
     stroke="none"
     id="g92">
    <path
       d="m 7130,2319 c -111,-16 -239,-58 -360,-119 -112,-56 -271,-165 -267,-183 1,-4 93,-87 204,-184 112,-96 210,-182 220,-190 14,-13 27,-9 110,31 219,106 429,83 610,-67 62,-50 140,-167 169,-254 34,-98 34,-278 1,-375 -59,-170 -194,-306 -363,-364 -81,-28 -242,-26 -331,4 -83,29 -168,84 -233,151 -27,28 -52,51 -56,51 -10,0 -453,-361 -458,-372 -2,-5 39,-51 91,-102 309,-302 718,-412 1135,-305 99,25 298,123 385,189 207,157 365,396 435,657 24,89 26,115 26,278 0,163 -2,189 -26,278 -54,201 -147,370 -285,518 -110,117 -192,178 -337,249 -211,104 -443,142 -670,109 z"
       id="path74" />
    <path
       d="M0 1170 l0 -1101 683 3 682 3 72 26 c156 57 285 172 353 314 48 101 61 155 61 258 1 183 -72 344 -212 470 l-62 56 47 52 c119 133 170 336 131 524 -45 214 -197 383 -417 463 l-73 27 -632 3 -633 3 0 -1101z m1069 634 c167 -83 166 -315 -1 -398 -51 -26 -55 -26 -270 -26 l-218 0 0 225 0 225 218 0 c216 0 219 0 271 -26z m-8 -835 c51 -18 96 -55 125 -105 68 -117 4 -284 -125 -323 -24 -7 -123 -11 -260 -11 l-221 0 0 225 0 225 224 0 c140 0 236 -4 257 -11z"
       id="path76" />
    <path
       d="M 8755,1170 V 70 h 300 300 l 2,366 3,367 299,-367 299,-366 h 354 c 195,0 353,3 351,8 -1,4 -192,259 -424,567 -231,308 -423,566 -428,572 -4,8 149,194 432,520 241,280 441,514 446,521 6,9 -69,12 -361,12 h -368 l -300,-369 -300,-368 -3,369 -2,368 h -300 -300 z"
       id="path78" />
    <path
       d="M 10975,1171 V 70 h 295 295 v 339 339 l 268,5 c 293,5 324,10 459,72 92,42 152,84 232,159 240,229 309,573 172,851 -97,196 -262,329 -496,402 l -90,27 -567,4 -568,3 z m 1056,582 c 48,-25 101,-83 120,-129 8,-19 14,-56 14,-84 0,-61 -17,-104 -60,-154 -66,-75 -89,-81 -322,-84 l -208,-3 v 241 241 l 208,-3 c 190,-3 210,-5 248,-25 z"
       id="path80" />
    <path
       d="M 13005,1170 V 70 h 295 295 v 1100 1100 h -295 -295 z"
       id="path82" />
    <path
       d="M 14025,1170 V 70 h 294 293 l 379,584 379,584 3,-584 2,-584 293,2 292,3 v 1095 1095 l -290,3 -290,2 -380,-588 -380,-589 -3,589 -2,588 h -295 -295 z"
       id="path84" />
    <path
       d="M 16285,1170 V 70 h 300 300 l 2,366 3,367 299,-367 299,-366 h 354 c 195,0 353,3 351,8 -1,4 -192,259 -424,567 -231,308 -423,566 -428,572 -4,8 149,194 432,520 241,280 441,514 446,521 6,9 -69,12 -361,12 h -368 l -300,-369 -300,-368 -3,369 -2,368 h -300 -300 z"
       id="path86" />
    <path
       d="M2150 1165 l0 -1095 885 0 885 0 0 270 0 270 -580 0 -580 0 0 825 0 825 -305 0 -305 0 0 -1095z"
       id="path88" />
    <path
       d="M4869 2233 c-6 -16 -186 -500 -399 -1078 -214 -577 -392 -1058 -395 -1067 -7 -17 12 -18 303 -18 l310 0 26 68 c14 37 39 103 55 147 l29 80 339 3 340 2 55 -147 55 -148 308 -3 307 -2 -4 22 c-4 17 -749 2037 -793 2151 -7 16 -29 17 -266 17 l-259 0 -11 -27z m356 -1055 c42 -145 80 -271 82 -280 5 -17 -8 -18 -166 -18 -94 0 -171 3 -171 8 0 17 164 552 170 552 4 0 42 -118 85 -262z"
       id="path90" />
  </g>
</svg>
